<svg width="24" height="24" viewBox="0 0 24 24" fill="none" xmlns="http://www.w3.org/2000/svg">
<path fill-rule="evenodd" clip-rule="evenodd" d="M7.5 19.5C8.328 19.5 9 20.172 9 21C9 21.828 8.328 22.5 7.5 22.5C6.672 22.5 6 21.828 6 21C6 20.172 6.672 19.5 7.5 19.5ZM4.5 21C4.5 22.6567 5.84325 24 7.5 24C9.15675 24 10.5 22.6567 10.5 21C10.5 19.3433 9.15675 18 7.5 18C5.84325 18 4.5 19.3433 4.5 21ZM6 16.5C5.172 16.5 4.5 15.828 4.5 15C4.5 15 21.75 13.5 21.729 13.5727C22.1115 12.15 23.9842 3.91725 24 3.75C24.0405 3.3375 23.6647 3 23.25 3H4.5V1.5H5.25C5.66475 1.5 6 1.16475 6 0.75C6 0.336 5.66475 0 5.25 0H0.75C0.33525 0 0 0.336 0 0.75C0 1.16475 0.33525 1.5 0.75 1.5H3V15C3 16.6567 4.34325 18 6 18H23.25C23.2733 18 23.25 17.2568 23.25 16.5H6ZM16.5 19.5C17.328 19.5 18 20.172 18 21C18 21.828 17.328 22.5 16.5 22.5C15.672 22.5 15 21.828 15 21C15 20.172 15.672 19.5 16.5 19.5ZM13.5 21C13.5 22.6567 14.8433 24 16.5 24C18.1567 24 19.5 22.6567 19.5 21C19.5 19.3433 18.1567 18 16.5 18C14.8433 18 13.5 19.3433 13.5 21Z" fill="white"/>
</svg>
